<svg width="242" height="57" viewBox="0 0 242 57" fill="none" xmlns="http://www.w3.org/2000/svg">
<g clip-path="url(#clip0)">
<path d="M28.326 5.71796e-06C22.7193 -0.00355486 17.2375 1.65584 12.5739 4.76819C7.91038 7.88055 4.27466 12.3061 2.12664 17.485C-0.0213852 22.6639 -0.585203 28.3636 0.506504 33.863C1.59821 39.3624 4.29639 44.4145 8.25975 48.3803C12.2231 52.346 17.2736 55.0472 22.7724 56.1422C28.2711 57.2372 33.9711 56.6768 39.1513 54.5319C44.3315 52.387 48.7593 48.7539 51.8744 44.0922C54.9896 39.4306 56.6522 33.9497 56.652 28.343C56.6532 24.6221 55.9214 20.9373 54.4986 17.4992C53.0757 14.061 50.9895 10.9368 48.3592 8.30488C45.7289 5.67297 42.6059 3.58493 39.1686 2.15998C35.7313 0.735029 32.047 0.00105613 28.326 5.71796e-06ZM28.326 52.222C23.6132 52.1757 19.0195 50.7357 15.1234 48.0836C11.2274 45.4315 8.20321 41.6859 6.43183 37.3184C4.66045 32.9509 4.22107 28.1569 5.16901 23.5402C6.11695 18.9234 8.40984 14.6904 11.7589 11.3743C15.1079 8.05814 19.3634 5.80722 23.9892 4.90491C28.6151 4.00261 33.4045 4.48929 37.7543 6.30372C42.1041 8.11814 45.8197 11.1791 48.4332 15.1012C51.0467 19.0233 52.4412 23.631 52.441 28.3441C52.4087 34.7081 49.8501 40.7987 45.3279 45.2765C40.8056 49.7543 34.69 52.2526 28.326 52.222Z" fill="#0077B3"/>
<path d="M29.486 25.1051L43.522 44.9321H36.3419L25.502 29.1321L20.777 33.8571V44.9291H15.033V11.9501H20.777V26.9141L35.369 11.9501H42.6889L29.486 25.1051Z" fill="#0077B3"/>
<path d="M78.703 20.183H66.657V25.931H77.136V30.247H66.657V40.411H61.226V15.622H78.703V20.183Z" fill="#087AB4"/>
<path d="M96.8059 40.41H92.1059V37.868C91.4795 38.8412 90.6112 39.6353 89.586 40.1723C88.5608 40.7094 87.4137 40.9712 86.2569 40.932C82.3919 40.932 79.9899 38.808 79.9899 34.526V22.446H84.9679V32.716C84.9679 34.979 85.1769 36.79 87.9969 36.79C91.0969 36.79 91.8969 34.423 91.8969 31.707V22.446H96.8069L96.8059 40.41Z" fill="#087AB4"/>
<path d="M111.114 40.411V29.9311C111.114 27.7031 110.696 26.031 108.051 26.031C105.091 26.031 104.151 28.154 104.151 30.766V40.4101H99.2429V22.447H103.943V24.9541C104.614 24.0057 105.509 23.2367 106.547 22.7145C107.585 22.1923 108.735 21.9329 109.897 21.9591C113.692 21.9591 116.128 24.2221 116.128 28.4001V40.411H111.114Z" fill="#087AB4"/>
<path d="M131.306 40.411V38.111C130.734 39.0203 129.928 39.7587 128.973 40.249C128.017 40.7392 126.947 40.9631 125.875 40.897C120.896 40.897 117.728 37.171 117.728 31.357C117.728 25.683 120.828 21.957 125.596 21.957C126.662 21.9135 127.722 22.1395 128.678 22.6142C129.633 23.0889 130.454 23.7971 131.063 24.673V15.621H135.971V40.411H131.306ZM126.95 25.858C124.27 25.858 122.704 27.912 122.704 31.358C122.704 34.84 124.304 36.929 126.95 36.929C129.666 36.929 131.233 34.91 131.233 31.393C131.236 27.912 129.635 25.858 126.95 25.858Z" fill="#087AB4"/>
<path d="M156.965 21.988C156.746 18.05 153.974 16.081 149.746 16.081C145.662 16.081 143.255 17.868 143.255 20.968C143.255 24.359 146.136 24.978 150.255 25.89C155.98 27.13 160.173 28.223 160.173 33.401C160.173 39.016 155.214 41.021 150.401 41.021C143.948 41.021 140.046 37.667 140.046 32.121V31.902H142.416C142.416 36.715 145.624 39.012 150.583 39.012C155.068 39.012 157.803 37.007 157.803 33.653C157.803 30.153 155.068 29.353 149.015 27.928C145.041 27.016 140.884 26.105 140.884 21.11C140.884 16.734 144.348 13.999 149.927 13.999C155.397 13.999 159.116 16.625 159.372 21.985L156.965 21.988Z" fill="#67686B"/>
<path d="M170.856 41.02C165.605 41.02 162.177 37.192 162.177 31.285C162.177 25.16 165.641 21.185 170.928 21.185C175.267 21.185 178.111 23.592 178.622 27.64H176.289C175.706 24.686 173.846 23.081 170.965 23.081C167.027 23.081 164.548 26.217 164.548 31.102C164.548 35.987 166.954 39.125 170.748 39.125C173.884 39.125 176 37.155 176.474 33.764H178.774C178.148 38.031 175.376 41.02 170.856 41.02Z" fill="#67686B"/>
<path d="M183.47 25.2701C184.008 24.015 184.92 22.9564 186.081 22.2386C187.242 21.5208 188.597 21.1787 189.96 21.259C194.335 21.259 196.524 23.7751 196.524 28.0771V40.477H194.224V28.369C194.224 25.161 192.729 23.192 189.411 23.192C185.145 23.192 183.504 26.547 183.504 30.592V40.474H181.243V14.513H183.507C183.507 25.853 183.507 23.8481 183.47 25.2701Z" fill="#67686B"/>
<path d="M216.904 31.18C216.904 37.233 213.513 41.024 208.081 41.024C202.611 41.024 199.147 37.159 199.147 31.106C199.147 25.09 202.647 21.188 208.081 21.188C213.477 21.18 216.904 25.05 216.904 31.18ZM201.481 31.107C201.481 36.031 203.997 39.13 208.117 39.13C212.092 39.13 214.608 36.0301 214.608 31.1441C214.608 26.2581 212.055 23.1231 208.044 23.1231C204.069 23.1181 201.481 26.254 201.481 31.103V31.107Z" fill="#67686B"/>
<path d="M236.448 31.18C236.448 37.233 233.057 41.024 227.624 41.024C222.154 41.024 218.69 37.159 218.69 31.106C218.69 25.09 222.19 21.188 227.624 21.188C233.021 21.18 236.448 25.05 236.448 31.18ZM221.024 31.107C221.024 36.031 223.541 39.13 227.661 39.13C231.635 39.13 234.152 36.0301 234.152 31.1441C234.152 26.2581 231.599 23.1231 227.588 23.1231C223.613 23.1181 221.024 26.254 221.024 31.103V31.107Z" fill="#67686B"/>
<path d="M241.515 40.475H239.254V14.513H241.515V40.475Z" fill="#67686B"/>
</g>
<defs>
<clipPath id="clip0">
<rect width="241.515" height="56.688" fill="white"/>
</clipPath>
</defs>
</svg>
