<svg width="242" height="57" viewBox="0 0 242 57" fill="none" xmlns="http://www.w3.org/2000/svg">
<path d="M28.362 5.71796e-06C22.7553 -0.00355486 17.2735 1.65584 12.6099 4.76819C7.94639 7.88055 4.31067 12.3061 2.16265 17.485C0.0146255 22.6639 -0.549193 28.3636 0.542514 33.863C1.63422 39.3624 4.3324 44.4145 8.29576 48.3803C12.2591 52.346 17.3096 55.0472 22.8084 56.1422C28.3071 57.2372 34.0071 56.6768 39.1873 54.5319C44.3675 52.387 48.7953 48.7539 51.9104 44.0922C55.0256 39.4306 56.6882 33.9497 56.688 28.343C56.6892 24.6221 55.9575 20.9373 54.5346 17.4992C53.1117 14.061 51.0255 10.9368 48.3952 8.30488C45.7649 5.67297 42.6419 3.58493 39.2046 2.15998C35.7673 0.735029 32.083 0.00105613 28.362 5.71796e-06ZM28.362 52.222C23.6492 52.1757 19.0555 50.7357 15.1594 48.0836C11.2634 45.4315 8.23922 41.6859 6.46784 37.3184C4.69646 32.9509 4.25708 28.1569 5.20502 23.5402C6.15297 18.9234 8.44585 14.6904 11.7949 11.3743C15.1439 8.05814 19.3994 5.80722 24.0252 4.90491C28.6511 4.00261 33.4405 4.48929 37.7903 6.30372C42.1401 8.11814 45.8557 11.1791 48.4692 15.1012C51.0827 19.0233 52.4772 23.631 52.477 28.3441C52.4447 34.7081 49.8861 40.7987 45.3639 45.2765C40.8416 49.7543 34.726 52.2526 28.362 52.222Z" fill="white"/>
<path d="M29.522 25.1051L43.558 44.9321H36.378L25.538 29.1321L20.813 33.8571V44.9291H15.069V11.9501H20.813V26.9141L35.405 11.9501H42.725L29.522 25.1051Z" fill="white"/>
<path d="M78.739 20.183H66.693V25.931H77.172V30.247H66.693V40.411H61.262V15.622H78.739V20.183Z" fill="white"/>
<path d="M96.842 40.41H92.142V37.868C91.5156 38.8412 90.6473 39.6353 89.6221 40.1723C88.5968 40.7094 87.4497 40.9712 86.293 40.932C82.428 40.932 80.026 38.808 80.026 34.526V22.446H85.004V32.716C85.004 34.979 85.213 36.79 88.033 36.79C91.133 36.79 91.933 34.423 91.933 31.707V22.446H96.843L96.842 40.41Z" fill="white"/>
<path d="M111.15 40.411V29.9311C111.15 27.7031 110.732 26.031 108.087 26.031C105.127 26.031 104.187 28.154 104.187 30.766V40.4101H99.279V22.447H103.979V24.9541C104.651 24.0057 105.545 23.2367 106.583 22.7145C107.621 22.1923 108.771 21.9329 109.933 21.9591C113.728 21.9591 116.164 24.222 116.164 28.4V40.411H111.15Z" fill="white"/>
<path d="M131.342 40.411V38.111C130.77 39.0203 129.964 39.7587 129.009 40.249C128.053 40.7392 126.983 40.9631 125.911 40.897C120.932 40.897 117.764 37.171 117.764 31.357C117.764 25.683 120.864 21.957 125.632 21.957C126.698 21.9135 127.758 22.1395 128.714 22.6142C129.669 23.0889 130.49 23.7971 131.099 24.673V15.621H136.007V40.411H131.342ZM126.986 25.858C124.306 25.858 122.74 27.912 122.74 31.358C122.74 34.84 124.34 36.929 126.986 36.929C129.702 36.929 131.269 34.91 131.269 31.393C131.272 27.912 129.671 25.858 126.986 25.858Z" fill="white"/>
<path d="M157.001 21.988C156.782 18.05 154.01 16.081 149.782 16.081C145.698 16.081 143.291 17.868 143.291 20.968C143.291 24.359 146.172 24.978 150.291 25.89C156.016 27.13 160.209 28.223 160.209 33.401C160.209 39.016 155.25 41.021 150.437 41.021C143.984 41.021 140.082 37.667 140.082 32.121V31.902H142.452C142.452 36.715 145.66 39.012 150.619 39.012C155.104 39.012 157.839 37.007 157.839 33.653C157.839 30.153 155.104 29.353 149.051 27.928C145.077 27.016 140.92 26.105 140.92 21.11C140.92 16.734 144.384 13.999 149.963 13.999C155.433 13.999 159.152 16.625 159.408 21.985L157.001 21.988Z" fill="#9D9EA3"/>
<path d="M170.892 41.02C165.641 41.02 162.213 37.192 162.213 31.285C162.213 25.16 165.677 21.185 170.964 21.185C175.303 21.185 178.147 23.592 178.658 27.64H176.325C175.742 24.686 173.882 23.081 171.001 23.081C167.063 23.081 164.584 26.217 164.584 31.102C164.584 35.987 166.99 39.125 170.784 39.125C173.92 39.125 176.036 37.155 176.51 33.764H178.81C178.184 38.031 175.412 41.02 170.892 41.02Z" fill="#9D9EA3"/>
<path d="M183.506 25.27C184.044 24.015 184.956 22.9564 186.117 22.2386C187.278 21.5208 188.633 21.1787 189.996 21.259C194.371 21.259 196.56 23.775 196.56 28.077V40.477H194.26V28.369C194.26 25.161 192.765 23.192 189.447 23.192C185.181 23.192 183.54 26.547 183.54 30.592V40.474H181.279V14.513H183.543C183.543 25.853 183.543 23.848 183.506 25.27Z" fill="#9D9EA3"/>
<path d="M216.94 31.18C216.94 37.233 213.549 41.024 208.117 41.024C202.647 41.024 199.183 37.159 199.183 31.106C199.183 25.09 202.683 21.188 208.117 21.188C213.513 21.18 216.94 25.05 216.94 31.18ZM201.517 31.107C201.517 36.031 204.033 39.13 208.153 39.13C212.128 39.13 214.644 36.0301 214.644 31.1441C214.644 26.2581 212.091 23.1231 208.08 23.1231C204.105 23.1181 201.517 26.254 201.517 31.103V31.107Z" fill="#9D9EA3"/>
<path d="M236.484 31.18C236.484 37.233 233.093 41.024 227.66 41.024C222.19 41.024 218.726 37.159 218.726 31.106C218.726 25.09 222.226 21.188 227.66 21.188C233.057 21.18 236.484 25.05 236.484 31.18ZM221.06 31.107C221.06 36.031 223.577 39.13 227.697 39.13C231.671 39.13 234.188 36.0301 234.188 31.1441C234.188 26.2581 231.635 23.1231 227.624 23.1231C223.649 23.1181 221.06 26.254 221.06 31.103V31.107Z" fill="#9D9EA3"/>
<path d="M241.551 40.475H239.29V14.513H241.551V40.475Z" fill="#9D9EA3"/>
</svg>
